<svg id="e3hxo58DXIF1" xmlns="http://www.w3.org/2000/svg" xmlns:xlink="http://www.w3.org/1999/xlink" viewBox="0 0 55 35.9" shape-rendering="geometricPrecision" text-rendering="geometricPrecision"><rect width="55.000055" height="35.899964" rx="7" ry="7" transform="matrix(.999999 0 0 1.000001 0.00003-.000074)" fill="#7ff57d" stroke-width="0"/><g transform="matrix(.999998 0 0 1.000001 0.00006-1.728109)"><rect width="4.216305" height="4.067322" rx="0" ry="0" transform="matrix(7.115249 0 0 0.491724 4.100556 31.908057)" fill="#f8719d" stroke-width="0"/><rect width="5.444143" height="4.067322" rx="0" ry="0" transform="matrix(8.633148 0 0 0.491724 4.100556 28.941161)" fill="#f8719d" stroke-width="0"/><rect width="8.396849" height="4.067322" rx="0" ry="0" transform="matrix(5.597349 0 0 0.491724 3.999978 25.941162)" fill="#f8719d" stroke-width="0"/></g><rect width="6" height="4.836284" rx="0" ry="0" transform="matrix(5.89713 0 0-.539896 4.100608 22.61109)" fill="#f8719d" stroke-width="0"/><rect width="20" height="14" rx="0" ry="0" transform="matrix(.999998 0 0 1.000001 4.100562 3.719875)" fill="#f8719d" stroke-width="0"/></svg>
