<svg xmlns="http://www.w3.org/2000/svg" viewBox="0 0 55 35.9" shape-rendering="geometricPrecision" text-rendering="geometricPrecision"><rect width="55" height="35.9" rx="7" ry="7" transform="rotate(.081 30 -74)" fill="#7ff57d"/><g transform="matrix(1 0 0 1 0 -1.728)" fill="#f8719d"><rect width="4.216" height="4.067" rx="0" ry="0" transform="matrix(7.11525 0 0 .49172 4.1 31.908)"/><rect width="5.444" height="4.067" rx="0" ry="0" transform="matrix(8.63315 0 0 .49172 4.1 28.941)"/><rect width="8.397" height="4.067" rx="0" ry="0" transform="matrix(5.59735 0 0 .49172 4 25.941)"/></g><rect width="6" height="4.836" rx="0" ry="0" transform="matrix(5.89713 0 0 -.5399 4.1 22.611)" fill="#f8719d"/><rect width="20" height="14" rx="0" ry="0" transform="matrix(1 0 0 1 4.1 3.72)" fill="#f8719d"/></svg>